<svg xmlns="http://www.w3.org/2000/svg" viewBox="0 0 358 358">
    <g id="Calque_2" data-name="Calque 2">
        <g id="Calque_1-2" data-name="Calque 1">
            <path
                d="M358,134v90c-.09,1.39-.26,2.78-.27,4.18A377.49,377.49,0,0,1,356,265.94a117.27,117.27,0,0,1-5.52,25.4c-9.3,27.15-27.17,46.26-53.81,57-12.71,5.13-26.06,7.43-39.67,8.18-10.49.58-21,.81-31.49,1.2A10.75,10.75,0,0,0,224,358H134.34a6.65,6.65,0,0,0-1.14-.25c-5.22-.16-10.45-.25-15.67-.45-8.68-.35-17.36-.59-26-1.64a119.88,119.88,0,0,1-27-6.21c-25.22-9.24-43.27-26.13-53.91-50.8-6.06-14.06-8.5-28.92-9.24-44.1-.44-9-.67-17.93-1-26.89,0-1.22-.25-2.44-.38-3.65V134a4.91,4.91,0,0,0,.29-1.11c.1-1.87.14-3.74.22-5.61.38-9.3.68-18.61,1.19-27.91A124.8,124.8,0,0,1,5.87,73.18c3-10.91,7.23-21.28,13.8-30.56A91.87,91.87,0,0,1,68.27,7.13a141.4,141.4,0,0,1,36.5-6C114.13.69,123.5.53,132.86.25A11.16,11.16,0,0,0,134.34,0H224a7.45,7.45,0,0,0,1.3.25c6.31.15,12.61.23,18.92.45,7.89.28,15.77.62,23.62,1.62a119.16,119.16,0,0,1,26.28,6.23c25,9.25,42.93,26.08,53.52,50.57,6.05,14,8.55,28.81,9.25,43.94.46,9.81.57,19.64.85,29.47A10.61,10.61,0,0,0,358,134Zm-32.22,45h-.11c0-14.32.08-28.64,0-43-.09-13.41-.35-26.82-1.73-40.17a84.56,84.56,0,0,0-5.13-22q-9.45-24.33-33.64-34.18a80,80,0,0,0-23.28-5.5C254,33.48,246.1,33,238.21,32.8c-12.15-.33-24.31-.43-36.47-.48-18.52-.06-37.05,0-55.57,0q-9.79,0-19.6.25c-9.88.25-19.77.45-29.61,1.47a89.18,89.18,0,0,0-21.88,4.86c-16.56,6.14-28.28,17.33-35,33.66A78.92,78.92,0,0,0,34.5,95.36c-.66,7-1.15,14-1.34,21.08q-.55,19.94-.64,39.88c-.07,19.26.08,38.52.1,57.78,0,13.7.34,27.39,1.17,41.06a102.66,102.66,0,0,0,3.41,21.67c2.2,7.87,5.32,15.33,10.35,21.88a60.55,60.55,0,0,0,32.32,21.81,116,116,0,0,0,26,4c13.56.7,27.14,1,40.71,1,19.38.05,38.76,0,58.14,0,17.1,0,34.2-.23,51.27-1.3a107.69,107.69,0,0,0,21.32-3.42,61,61,0,0,0,32.2-20.54c5.68-7,9.21-14.95,11.6-23.5A112.69,112.69,0,0,0,324.84,250q.63-19.15.91-38.33C325.9,200.78,325.78,189.87,325.78,179Z" />
            <path
                d="M179.22,87a91.91,91.91,0,1,1-91.94,91.09A91.93,91.93,0,0,1,179.22,87Zm-.12,151.56a59.63,59.63,0,1,0-59.53-59.77A59.69,59.69,0,0,0,179.1,238.58Z" />
            <path d="M253.23,83.35a21.48,21.48,0,1,1,21.33,21.57A21.32,21.32,0,0,1,253.23,83.35Z" />
        </g>
    </g>
</svg>