<svg xmlns="http://www.w3.org/2000/svg" viewBox="0 0 366 363.49" class="clickable">
    <g id="Calque_2" data-name="Calque 2" class="clickable">
        <g id="Calque_1-2" class="clickable" data-name="Calque 1">
            <path class="clickable"
                d="M366,175.16v16.43a12.58,12.58,0,0,0-.31,1.82,173.74,173.74,0,0,1-3.92,29A183.18,183.18,0,0,1,230.08,359.84c-2.05.55-4.13,1-6.2,1.5v-152h43.75V158.6H223.34c0-4.7-.29-9.25.08-13.74a76,76,0,0,1,2.27-14.51c3.11-11,9.81-18.75,21.31-21.54,6.2-1.5,12.5-1.12,18.74-.27,4,.53,7.91,1.45,12,2.21Q279.05,84.43,280.4,58c-.75-.2-1.33-.43-1.93-.53-7.11-1.18-14.18-2.68-21.33-3.45a109.17,109.17,0,0,0-34.72,1.62c-16.5,3.54-31.1,10.65-42.93,22.94-9.76,10.13-16,22.25-20,35.59s-5.3,26.8-5.12,40.57c0,1.21,0,2.43,0,3.85H125.51V209.4h28.7V363.49c-.72-.09-1.27-.12-1.82-.21a172.74,172.74,0,0,1-28.52-7.23Q54.1,331.39,19.81,265.79A174.36,174.36,0,0,1,1,202.34c-.37-3.58-.69-7.17-1-10.75V174.78a17,17,0,0,0,.31-2,180.07,180.07,0,0,1,5.38-35.16C24.71,62.24,91.56,6.15,168.87.68c3-.21,5.93-.45,8.9-.68h10.46c.73.1,1.46.27,2.19.3a167.79,167.79,0,0,1,35.06,4.8q73.28,18.28,113.44,82.28a176.52,176.52,0,0,1,26,76.1C365.33,167.37,365.64,171.27,366,175.16Z" />
        </g>
    </g>
</svg>